<?xml version="1.0" encoding="utf-8"?>
<!-- Generator: Adobe Illustrator 25.2.3, SVG Export Plug-In . SVG Version: 6.00 Build 0)  -->
<svg version="1.1" id="Layer_1" xmlns="http://www.w3.org/2000/svg" xmlns:xlink="http://www.w3.org/1999/xlink" x="0px" y="0px"
	 viewBox="0 0 160 167.7" style="enable-background:new 0 0 160 167.7;" xml:space="preserve">
<style type="text/css">
	.st0{fill:#FFFFFF;}
	.st1{fill:#2F9BD9;}
	.st2{fill:#1D6187;}
</style>
<g id="GoPxL_Colour_on_Dark_Logo_Text" transform="translate(-85.147 -47.784)">
	<g id="Group_143" transform="translate(85.147 176.846)">
		<g id="Group_139" transform="translate(0)">
			<path id="Path_276" class="st0" d="M0,19.4v-0.1C-0.1,8.7,8.4,0.1,19,0c0.2,0,0.4,0,0.6,0c6.7,0,10.8,1.8,14.7,5.1l-5.2,6.2
				c-2.9-2.4-5.4-3.8-9.8-3.8c-6,0-10.7,5.3-10.7,11.6v0.1c0,6.8,4.7,11.8,11.3,11.8c2.7,0.1,5.5-0.7,7.7-2.2v-5.3h-8.3v-7.1h16.2
				v16.2c-4.4,3.8-10.1,5.9-15.9,5.9C8,38.6,0,30.4,0,19.4z"/>
			<path id="Path_277" class="st0" d="M38.2,23.8v-0.1c0-8.2,6.6-14.9,15.5-14.9c8.9,0,15.4,6.6,15.4,14.8v0.1
				c0,8.2-6.6,14.9-15.5,14.9C44.7,38.6,38.2,32,38.2,23.8z M61.1,23.8v-0.1c0.2-4.2-3.1-7.7-7.3-7.9c-0.1,0-0.2,0-0.2,0
				c-4.6,0-7.4,3.6-7.4,7.8v0.1c-0.2,4.2,3.1,7.7,7.3,7.9c0.1,0,0.2,0,0.2,0C58.3,31.6,61.1,28,61.1,23.8L61.1,23.8z"/>
			<path id="Path_278" class="st0" d="M72.1,0.6h15.2c8.9,0,14.3,5.3,14.3,12.9v0.1c0,8.6-6.7,13.1-15.1,13.1h-6.2V38h-8.2L72.1,0.6
				z M86.8,19.5c4.1,0,6.5-2.5,6.5-5.7v-0.1c0-3.7-2.6-5.7-6.7-5.7h-6.3v11.4L86.8,19.5z"/>
			<path id="Path_279" class="st0" d="M121.5,24.6l8.9-12.8h-8.6l-4.6,7.1l-4.5-7.1h-8.8l8.9,12.9L103.6,38h8.6l4.9-7.6L122,38h8.8
				L121.5,24.6z"/>
			<path id="Path_280" class="st0" d="M133.2,0.6h8.2v29.9H160V38h-26.8L133.2,0.6z"/>
		</g>
		<g id="Group_142" transform="translate(142.811 0.452)">
			<g id="Group_140" transform="translate(1.232 0.982)">
				<path id="Path_281" class="st0" d="M0,0h1c0.2,0,0.4,0.1,0.6,0.2c0.1,0.1,0.2,0.3,0.2,0.5v0c0,0.3-0.2,0.6-0.5,0.7l0.5,0.8H1.3
					L0.8,1.4H0.5v0.7H0L0,0z M0.9,1c0.2,0,0.4-0.1,0.4-0.3v0c0-0.2-0.1-0.3-0.4-0.3H0.5V1L0.9,1z"/>
			</g>
			<g id="Group_141">
				<path id="Path_282" class="st0" d="M2,4.1c-1.1,0-2-0.9-2-2s0.9-2,2-2s2,0.9,2,2c0,0,0,0,0,0C4.1,3.2,3.2,4.1,2,4.1z M2,0.4
					C1.1,0.4,0.4,1.1,0.4,2C0.4,3,1.1,3.7,2,3.7C3,3.7,3.7,3,3.7,2c0,0,0,0,0,0C3.7,1.1,3,0.4,2,0.4z"/>
			</g>
		</g>
	</g>
	<g id="Logo_on_dark" transform="translate(124.653 47.784)">
		<g id="Path_283" transform="translate(-469.92 -47.784)">
			<path d="M510.3,139.8l-39.3-22.7V71.6l39.3-22.7l39.3,22.7v45.4L510.3,139.8z"/>
			<path class="st1" d="M510.3,50.1l-38.3,22.1v44.3l38.3,22.1l38.3-22.1V72.2L510.3,50.1 M510.3,47.8l40.3,23.3v46.6l-40.3,23.3
				l-40.3-23.3V71.1L510.3,47.8z"/>
		</g>
		<path id="Path_284" class="st1" d="M40.3,69.4L60.1,58l20.6,11.9L40.3,93.2L0,69.9L20.6,58L40.3,69.4z"/>
		<path id="Path_287" class="st2" d="M40.3,0v23.8l19.8,11.4V58l20.6,11.9V23.3L40.3,0z"/>
		<path id="Path_288" class="st1" d="M40.3,46.6L20.6,35.2l19.8-11.4l19.8,11.4L40.3,46.6z"/>
		<path id="Path_289" class="st2" d="M40.3,46.6v22.8L20.6,58V35.2L40.3,46.6z"/>
	</g>
</g>
</svg>
