<?xml version="1.0" encoding="utf-8"?>
<!-- Generator: Adobe Illustrator 24.1.0, SVG Export Plug-In . SVG Version: 6.00 Build 0)  -->
<svg version="1.1" id="Artwork" xmlns="http://www.w3.org/2000/svg" xmlns:xlink="http://www.w3.org/1999/xlink" x="0px" y="0px"
	 viewBox="0 0 120.9 32" style="enable-background:new 0 0 120.9 32;" xml:space="preserve">
<style type="text/css">
	.st0{enable-background:new    ;}
	.st1{fill:#BCBEC0;}
	.st2{fill:#DCDDDE;}
	.st3{fill:#FFFFFF;}
</style>
<g>
	<g class="st0">
		<g>
			<polyline class="st1" points="31.1,5 27.3,7.3 24.9,24.1 28.2,21.3 31.1,5 			"/>
			<polyline class="st1" points="25.3,8.4 18,12.6 15.5,20.7 15.5,32 17.3,30.5 19.9,19.4 20.1,19.3 19.5,28.7 23.3,25.5 25.3,8.4 
							"/>
		</g>
	</g>
	<g>
		<g>
			<polyline class="st2" points="3.8,7.3 0,5.1 3,21.3 11.6,28.7 11.4,24.8 5.7,20.3 3.8,7.3 			"/>
			<polyline class="st2" points="12.9,12.6 5.8,8.4 7.2,20.2 11.3,23.4 11,19.3 11.1,19.4 13.8,30.5 15.5,32 15.5,20.7 12.9,12.6 
							"/>
		</g>
	</g>
	<g class="st0">
		<g>
			<path class="st3" d="M6,2.9L5.1,3.2C4.4,3.5,3.9,3.7,3.5,4C3.1,4.2,2.9,4.4,2.7,4.7C2.6,4.9,2.6,5.1,2.8,5.4
				c0.2,0.2,0.4,0.5,0.9,0.7c0.5,0.3,1,0.5,1.6,0.6c0.6,0.1,1.2,0.2,1.9,0.1c0.7,0,1.4-0.1,2.1-0.3c0.7-0.2,1.5-0.5,2.3-0.8
				c0.5-0.2,0.9-0.4,1.3-0.6c0.3-0.2,0.6-0.4,0.7-0.5c0.2-0.2,0.2-0.3,0.2-0.5c0-0.2-0.1-0.4-0.2-0.6c0.4,0.1,0.9,0.1,1.2,0.1
				c0.4,0,0.7,0,1.1-0.1c0.4-0.1,0.7-0.1,1-0.3c0.3-0.1,0.7-0.2,1.1-0.4c0.4-0.2,0.8-0.4,1-0.6c0.2-0.2,0.4-0.4,0.4-0.6
				c0-0.2,0-0.4-0.2-0.6c-0.2-0.2-0.5-0.4-0.9-0.5c-0.4-0.2-0.9-0.3-1.4-0.4C16.5,0,16,0,15.6,0c-0.5,0-0.9,0.1-1.4,0.1
				c-0.5,0.1-0.9,0.2-1.3,0.4l-0.6,0.2L14,1.4l0.5-0.2C14.8,1.1,15,1,15.2,1c0.2,0,0.4-0.1,0.6-0.1c0.2,0,0.3,0,0.5,0
				c0.2,0,0.3,0.1,0.5,0.1C16.9,1.1,17,1.2,17,1.3c0,0.1,0,0.1,0,0.2c-0.1,0.1-0.2,0.2-0.4,0.3c-0.2,0.1-0.4,0.2-0.7,0.3
				c-0.4,0.2-0.7,0.3-1.1,0.3c-0.3,0.1-0.6,0.1-0.9,0.1c-0.3,0-0.6,0-0.9-0.1c-0.3-0.1-0.6-0.2-0.9-0.3l-1.9,0.7
				c0.3,0.1,0.5,0.3,0.7,0.4c0.2,0.1,0.2,0.3,0.2,0.4c0,0.1-0.1,0.3-0.3,0.4c-0.2,0.1-0.5,0.3-0.9,0.5L8.9,5
				C8.5,5.1,8.2,5.2,7.9,5.3C7.7,5.3,7.4,5.4,7.2,5.4c-0.2,0-0.5,0-0.7,0C6.3,5.4,6.1,5.3,6,5.2C5.8,5.1,5.7,5.1,5.7,5
				c0-0.1,0-0.2,0-0.3c0.1-0.1,0.2-0.2,0.3-0.3c0.2-0.1,0.4-0.2,0.6-0.3l1-0.4L6,2.9"/>
			<path class="st3" d="M17.4,8.6C17,8.9,16.6,9,16.2,9.1c-0.4,0.1-0.7,0.2-1.1,0.2c-0.3,0-0.7,0-1-0.1c-0.3-0.1-0.7-0.2-1-0.4
				l-0.9-0.5l10.5-4.9l0.9,0.3C24,3.9,24.2,4,24.4,4.1c0.2,0.1,0.3,0.2,0.3,0.4c0,0.1-0.1,0.3-0.2,0.4c-0.2,0.1-0.4,0.3-0.8,0.5
				L17.4,8.6 M22,1.7L7.3,8.1l3.7,2.1c0.7,0.4,1.4,0.7,2.2,0.9c0.8,0.2,1.6,0.3,2.4,0.2c0.8,0,1.7-0.2,2.5-0.4
				c0.8-0.2,1.7-0.6,2.5-1.1l5.7-3.2C27,6.3,27.5,6,27.7,5.6C28,5.3,28.1,5,28,4.7c-0.1-0.3-0.3-0.6-0.7-0.9
				c-0.4-0.3-0.9-0.5-1.6-0.8L22,1.7"/>
		</g>
	</g>
</g>
<g>
	<path class="st3" d="M34.4,19v-6.2h1.4v4.9h3.1V19H34.4z"/>
	<path class="st3" d="M44.8,19v-4L43,17.6h0L41.3,15v4H40v-6.2h1.5l1.6,2.6l1.6-2.6h1.5V19H44.8z"/>
	<path class="st3" d="M47.8,19v-6.2h1.4V19H47.8z"/>
	<path class="st3" d="M56.3,14.1V19h-1.4v-4.9H53v-1.2h5.1v1.2H56.3z"/>
	<path class="st3" d="M59.2,19v-5.7h4.3v1.1h-3v1.1h2.7v1.1h-2.7v1.2h3.1V19H59.2z"/>
	<path class="st3" d="M67.3,19.1c-1.7,0-2.9-1.3-2.9-2.9v0c0-1.6,1.2-2.9,2.9-2.9c1.1,0,1.7,0.4,2.2,0.9l-0.8,0.9
		c-0.4-0.4-0.9-0.6-1.4-0.6c-1,0-1.6,0.8-1.6,1.8v0c0,1,0.7,1.8,1.6,1.8c0.6,0,1-0.3,1.5-0.7l0.8,0.8C69.1,18.7,68.4,19.1,67.3,19.1
		z"/>
	<path class="st3" d="M74.3,19v-2.3H72V19h-1.2v-5.7H72v2.2h2.3v-2.2h1.2V19H74.3z"/>
	<path class="st3" d="M80.9,19l-2.7-3.6V19H77v-5.7h1.1l2.6,3.5v-3.5H82V19H80.9z"/>
	<path class="st3" d="M86.2,19.1c-1.7,0-3-1.3-3-2.9v0c0-1.6,1.3-2.9,3-2.9c1.7,0,3,1.3,3,2.9v0C89.2,17.8,87.9,19.1,86.2,19.1z
		 M87.9,16.2c0-1-0.7-1.8-1.7-1.8c-1,0-1.7,0.8-1.7,1.8v0c0,1,0.7,1.8,1.7,1.8C87.2,18,87.9,17.2,87.9,16.2L87.9,16.2z"/>
	<path class="st3" d="M90.4,19v-5.7h1.2v4.5h2.8V19H90.4z"/>
	<path class="st3" d="M97.9,19.1c-1.7,0-3-1.3-3-2.9v0c0-1.6,1.3-2.9,3-2.9c1.7,0,3,1.3,3,2.9v0C100.9,17.8,99.6,19.1,97.9,19.1z
		 M99.6,16.2c0-1-0.7-1.8-1.7-1.8c-1,0-1.7,0.8-1.7,1.8v0c0,1,0.7,1.8,1.7,1.8C98.9,18,99.6,17.2,99.6,16.2L99.6,16.2z"/>
	<path class="st3" d="M104.8,19.1c-1.8,0-3-1.2-3-2.9v0c0-1.6,1.3-2.9,3-2.9c1,0,1.6,0.3,2.2,0.8l-0.8,0.9c-0.4-0.4-0.8-0.6-1.5-0.6
		c-0.9,0-1.6,0.8-1.6,1.8v0c0,1,0.7,1.8,1.7,1.8c0.5,0,0.9-0.1,1.2-0.3v-0.8h-1.3v-1.1h2.5v2.5C106.6,18.7,105.8,19.1,104.8,19.1z"
		/>
	<path class="st3" d="M108.5,19v-5.7h1.2V19H108.5z"/>
	<path class="st3" d="M111.3,19v-5.7h4.3v1.1h-3v1.1h2.7v1.1h-2.7v1.2h3.1V19H111.3z"/>
	<path class="st3" d="M118.8,19.1c-0.9,0-1.7-0.3-2.4-0.9l0.7-0.9c0.5,0.4,1,0.7,1.7,0.7c0.5,0,0.8-0.2,0.8-0.5v0
		c0-0.3-0.2-0.5-1.1-0.7c-1.1-0.3-1.9-0.6-1.9-1.7v0c0-1,0.8-1.7,2-1.7c0.8,0,1.5,0.3,2.1,0.7L120,15c-0.5-0.3-1-0.6-1.5-0.6
		c-0.5,0-0.7,0.2-0.7,0.5v0c0,0.4,0.2,0.5,1.2,0.7c1.1,0.3,1.8,0.7,1.8,1.7v0C120.8,18.5,120,19.1,118.8,19.1z"/>
</g>
</svg>
